<svg xmlns="http://www.w3.org/2000/svg" viewBox="0 0 64 64" xml:space="preserve"><path fill="#0A5078" d="M42 22H22a2 2 0 0 1-2-2V6a2 2 0 0 1 2-2h20a2 2 0 0 1 2 2v14a2 2 0 0 1-2 2z"/><path fill="#00A0C8" d="M22 6h20v14H22z"/><path fill="#C80A50" d="M26 11v9h12v-9a5 5 0 0 0-5-5h-2a5 5 0 0 0-5 5z"/><path fill="#D2AA82" d="M30 17h4v3h-4z"/><path fill="#F0C8A0" d="M33 18h-2a3 3 0 0 1-3-3v-3a2 2 0 0 1 2-2h1a2 2 0 0 0 2 2h3v3a3 3 0 0 1-3 3z"/><path fill="#0A5078" d="M38 26H26a2 2 0 0 1 2-2h8a2 2 0 0 1 2 2zM31 22h2v2h-2zM26 56H6a2 2 0 0 1-2-2V40a2 2 0 0 1 2-2h20a2 2 0 0 1 2 2v14a2 2 0 0 1-2 2z"/><path fill="#00A0C8" d="M6 40h20v14H6z"/><path fill="#FAB400" d="M8.184 54h15.633a2.99 2.99 0 0 0-2.816-2H11a2.99 2.99 0 0 0-2.816 2z"/><path fill="#DC9600" d="M12.555 54h6.89c.344-.59.555-1.268.555-2h-8c0 .732.211 1.41.555 2z"/><path fill="#D2AA82" d="M16 54a2 2 0 0 1-2-2v-3h4v3a2 2 0 0 1-2 2z"/><path fill="#F0C8A0" d="M17 50h-2a3 3 0 0 1-3-3v-3a2 2 0 0 1 2-2h4a2 2 0 0 1 2 2v3a3 3 0 0 1-3 3z"/><path fill="#0A5078" d="M18 42h-4a2 2 0 0 0-2 2v-2a2 2 0 0 1 2-2h4a2 2 0 0 1 2 2v2a2 2 0 0 0-2-2zM22 60H10a2 2 0 0 1 2-2h8a2 2 0 0 1 2 2zM15 56h2v2h-2zM58 56H38a2 2 0 0 1-2-2V40a2 2 0 0 1 2-2h20a2 2 0 0 1 2 2v14a2 2 0 0 1-2 2z"/><path fill="#00325A" d="M42.898 38H38a2 2 0 0 0-2 2v4.303A12.017 12.017 0 0 0 42.898 38zM26 38h-4.898A12.02 12.02 0 0 0 28 44.303V40a2 2 0 0 0-2-2z"/><path fill="#00A0C8" d="M38 40h20v14H38z"/><g><path fill="#0082AA" d="M40.184 54h15.633a2.99 2.99 0 0 0-2.816-2H43a2.99 2.99 0 0 0-2.816 2z"/><path fill="#00648C" d="M44.555 54h6.89c.344-.59.555-1.268.555-2h-8c0 .732.211 1.41.555 2z"/><path fill="#D2AA82" d="M48 54a2 2 0 0 1-2-2v-3h4v3a2 2 0 0 1-2 2z"/><path fill="#F0C8A0" d="M49 50h-2a3 3 0 0 1-3-3v-3a2 2 0 0 1 2-2h4a2 2 0 0 1 2 2v3a3 3 0 0 1-3 3z"/><path fill="#DC9600" d="M50 42h-4a2 2 0 0 0-2 2v-2a2 2 0 0 1 2-2h4a2 2 0 0 1 2 2v2a2 2 0 0 0-2-2z"/></g><g><path fill="#0A5078" d="M54 60H42a2 2 0 0 1 2-2h8a2 2 0 0 1 2 2z"/></g><g><path fill="#0A5078" d="M47 56h2v2h-2z"/></g><g><path fill="#0082AA" d="M38 43.381A12.047 12.047 0 0 0 41.733 40H38v3.381zM26 43.381V40h-3.733A12.022 12.022 0 0 0 26 43.381z"/></g><g><circle fill="#FAB400" cx="32" cy="32" r="12"/></g><g><path fill="#DC9600" d="m38.707 30.293-6-6a.999.999 0 0 0-1.414 0l-6 6A1 1 0 0 0 26 32h2v8a1 1 0 0 0 1 1h6a1 1 0 0 0 1-1v-8h2a1 1 0 0 0 .707-1.707z"/></g><path fill="#C80A50" d="m38.707 29.293-6-6a.999.999 0 0 0-1.414 0l-6 6A1 1 0 0 0 26 31h2v8a1 1 0 0 0 1 1h6a1 1 0 0 0 1-1v-8h2a1 1 0 0 0 .707-1.707z"/></svg>